<svg width="88" height="30" viewBox="0 0 88 30" fill="none" xmlns="http://www.w3.org/2000/svg">
<path d="M18.3034 11.9363C18.3034 17.3231 14.8818 21.2509 9.13754 21.2509C3.80934 21.2509 0 18.0664 0 12.1733H3.86925C3.86925 15.7443 5.59484 17.5594 9.13754 17.5594C12.7092 17.5594 14.3769 15.0918 14.3769 11.9363V3.6612H8.09731V0H18.304V11.9363H18.3034Z" fill="#BF002D"/>
<path d="M24.5243 14.7918C24.7647 16.6069 26.3414 17.9164 28.8999 17.9164C30.2397 17.9164 31.9949 17.4108 32.8297 16.5464L35.1505 18.8388C33.6033 20.4466 31.0725 21.2234 28.8419 21.2234C23.781 21.2234 20.7743 18.0968 20.7743 13.3947C20.7743 8.92967 23.812 5.71484 28.5733 5.71484C33.4835 5.71484 36.5495 8.74993 35.984 14.7918H24.5243V14.7918ZM32.5018 11.787C32.2628 9.88431 30.7749 8.92967 28.6912 8.92967C26.7259 8.92967 25.1195 9.88365 24.5843 11.787H32.5018Z" fill="#BF002D"/>
<path d="M49.5839 20.835V13.1557C49.5839 10.9245 48.3633 9.22722 46.0425 9.22722C43.8093 9.22722 42.2911 11.1023 42.2911 13.3335V20.835H38.6885V6.13155H41.933L42.1706 8.12576C43.6599 6.66549 45.1491 5.92285 46.9925 5.92285C50.4464 5.92285 53.2135 8.51288 53.2135 13.1261V20.8343H49.5839V20.835Z" fill="#BF002D"/>
<path d="M67.8563 4.67236L70.5366 6.69554L68.9005 8.77928C70.0336 10.0585 70.4483 11.5174 70.4483 13.1252C70.4483 14.9423 69.7623 17.5014 67.3507 18.6022C69.7926 19.8215 70.3851 21.578 70.3851 23.4531C70.3851 27.5014 67.2908 29.9999 63.0338 29.9999C58.7787 29.9999 55.5942 27.4112 55.5942 23.4531H59.1955C59.1955 25.3584 60.952 26.6099 63.0338 26.6099C65.1188 26.6099 66.7549 25.4762 66.7549 23.4531C66.7549 21.4299 64.8496 20.5068 63.0338 20.5068C58.4508 20.5068 55.5942 17.7094 55.5942 13.1258C55.5942 8.54227 58.9295 5.68625 63.0338 5.68625C64.1965 5.68625 65.3848 5.83307 66.3967 6.51844L67.8563 4.67236ZM59.1961 13.1265C59.1961 15.6849 60.9217 17.2018 63.0344 17.2018C65.1195 17.2018 66.8451 15.6533 66.8451 13.1265C66.8451 10.5951 65.1182 8.98799 63.0344 8.98799C60.923 8.98799 59.1961 10.5648 59.1961 13.1265Z" fill="#BF002D"/>
<path d="M84.4045 6.15896L84.3124 7.72522C82.9173 6.39531 81.0271 5.57959 78.9513 5.57959C74.6534 5.57959 71.1719 9.06369 71.1719 13.3609C71.1719 16.3631 72.8719 18.9715 75.3644 20.2632C76.5383 20.9493 77.9584 21.2916 79.524 21.2811C80.8941 21.2508 82.7237 20.6701 83.7745 19.4613C83.9595 19.3178 84.1386 19.1651 84.3097 18.9965L84.4651 20.8341H87.8886V6.15896H84.4045ZM79.2528 17.9464C76.8425 17.9464 74.9069 16.2801 74.9069 13.482C74.9069 10.6846 76.8418 9.04591 79.2528 9.04591C84.9681 9.04591 84.9681 17.9464 79.2528 17.9464Z" fill="#BF002D"/>
</svg>
